<svg width="900" height="260" viewBox="0 0 900 260" fill="none" xmlns="http://www.w3.org/2000/svg">
  <defs>
    <linearGradient id="cityBg" x1="0" y1="0" x2="0" y2="260" gradientUnits="userSpaceOnUse">
      <stop stop-color="#7DEBFF" stop-opacity="0.88"/>
      <stop offset="1" stop-color="#2D87FF" stop-opacity="0.74"/>
    </linearGradient>
  </defs>
  <rect y="198" width="900" height="62" fill="#58D6FF" fill-opacity="0.32"/>
  <rect x="28" y="128" width="76" height="70" fill="url(#cityBg)"/>
  <rect x="122" y="104" width="84" height="94" fill="url(#cityBg)"/>
  <rect x="222" y="86" width="68" height="112" fill="url(#cityBg)"/>
  <rect x="306" y="92" width="62" height="106" fill="url(#cityBg)"/>
  <rect x="390" y="72" width="78" height="126" fill="url(#cityBg)"/>
  <rect x="494" y="96" width="66" height="102" fill="url(#cityBg)"/>
  <rect x="576" y="120" width="54" height="78" fill="url(#cityBg)"/>
  <rect x="648" y="78" width="82" height="120" fill="url(#cityBg)"/>
  <rect x="748" y="114" width="60" height="84" fill="url(#cityBg)"/>
  <rect x="824" y="136" width="48" height="62" fill="url(#cityBg)"/>
  <path d="M450 42L470 110H430L450 42Z" fill="#7DEBFF"/>
  <path d="M450 8L456 50H444L450 8Z" fill="#BDF5FF"/>
  <text x="450" y="240" text-anchor="middle" fill="#DDF7FF" font-size="24" font-family="Arial, sans-serif">
    CITY PLACEHOLDER
  </text>
</svg>
